<mxfile host="app.diagrams.net" agent="Mozilla/5.0 (Windows NT 10.0; Win64; x64) AppleWebKit/537.36 (KHTML, like Gecko) Chrome/134.0.0.0 Safari/537.36" version="26.1.3">
  <diagram name="Page-1" id="vyCbo7XRAaGh8wQMjJww">
    <mxGraphModel dx="473" dy="822" grid="1" gridSize="10" guides="1" tooltips="1" connect="1" arrows="1" fold="1" page="1" pageScale="1" pageWidth="850" pageHeight="1100" math="0" shadow="0">
      <root>
        <mxCell id="0" />
        <mxCell id="1" parent="0" />
        <mxCell id="LA-oecmotC60W59ETHk6-46" value="" style="rounded=0;whiteSpace=wrap;html=1;" vertex="1" parent="1">
          <mxGeometry x="850" y="80" width="760" height="280" as="geometry" />
        </mxCell>
        <mxCell id="LA-oecmotC60W59ETHk6-1" value="" style="shape=table;html=1;whiteSpace=wrap;startSize=0;container=1;collapsible=0;childLayout=tableLayout;columnLines=0;rowLines=0;fontSize=24;strokeColor=default;fillColor=light-dark(#FFFFFF,#071E22);fontStyle=1" vertex="1" parent="1">
          <mxGeometry x="900" y="180" width="240" height="160" as="geometry" />
        </mxCell>
        <mxCell id="LA-oecmotC60W59ETHk6-2" value="" style="shape=tableRow;horizontal=0;startSize=0;swimlaneHead=0;swimlaneBody=0;top=0;left=0;bottom=0;right=0;collapsible=0;dropTarget=0;fillColor=none;points=[[0,0.5],[1,0.5]];portConstraint=eastwest;fontSize=24;strokeColor=inherit;fontStyle=1" vertex="1" parent="LA-oecmotC60W59ETHk6-1">
          <mxGeometry width="240" height="40" as="geometry" />
        </mxCell>
        <mxCell id="LA-oecmotC60W59ETHk6-3" value="&lt;font style=&quot;&quot;&gt;0&lt;/font&gt;" style="shape=partialRectangle;html=1;whiteSpace=wrap;connectable=0;fillColor=none;top=0;left=0;bottom=0;right=0;overflow=hidden;fontSize=24;strokeColor=inherit;fontStyle=1;fontColor=light-dark(#000000,#FFFFFF);" vertex="1" parent="LA-oecmotC60W59ETHk6-2">
          <mxGeometry width="60" height="40" as="geometry">
            <mxRectangle width="60" height="40" as="alternateBounds" />
          </mxGeometry>
        </mxCell>
        <mxCell id="LA-oecmotC60W59ETHk6-4" value="-6" style="shape=partialRectangle;html=1;whiteSpace=wrap;connectable=0;fillColor=none;top=0;left=0;bottom=0;right=0;overflow=hidden;fontSize=24;strokeColor=inherit;fontStyle=1" vertex="1" parent="LA-oecmotC60W59ETHk6-2">
          <mxGeometry x="60" width="60" height="40" as="geometry">
            <mxRectangle width="60" height="40" as="alternateBounds" />
          </mxGeometry>
        </mxCell>
        <mxCell id="LA-oecmotC60W59ETHk6-5" value="6" style="shape=partialRectangle;html=1;whiteSpace=wrap;connectable=0;fillColor=none;top=0;left=0;bottom=0;right=0;overflow=hidden;fontSize=24;strokeColor=inherit;fontStyle=1" vertex="1" parent="LA-oecmotC60W59ETHk6-2">
          <mxGeometry x="120" width="60" height="40" as="geometry">
            <mxRectangle width="60" height="40" as="alternateBounds" />
          </mxGeometry>
        </mxCell>
        <mxCell id="LA-oecmotC60W59ETHk6-6" value="-2" style="shape=partialRectangle;html=1;whiteSpace=wrap;connectable=0;fillColor=none;top=0;left=0;bottom=0;right=0;overflow=hidden;fontSize=24;strokeColor=inherit;fontStyle=1" vertex="1" parent="LA-oecmotC60W59ETHk6-2">
          <mxGeometry x="180" width="60" height="40" as="geometry">
            <mxRectangle width="60" height="40" as="alternateBounds" />
          </mxGeometry>
        </mxCell>
        <mxCell id="LA-oecmotC60W59ETHk6-7" value="" style="shape=tableRow;horizontal=0;startSize=0;swimlaneHead=0;swimlaneBody=0;top=0;left=0;bottom=0;right=0;collapsible=0;dropTarget=0;fillColor=none;points=[[0,0.5],[1,0.5]];portConstraint=eastwest;fontSize=24;strokeColor=inherit;fontStyle=1" vertex="1" parent="LA-oecmotC60W59ETHk6-1">
          <mxGeometry y="40" width="240" height="40" as="geometry" />
        </mxCell>
        <mxCell id="LA-oecmotC60W59ETHk6-8" value="-9" style="shape=partialRectangle;html=1;whiteSpace=wrap;connectable=0;fillColor=none;top=0;left=0;bottom=0;right=0;overflow=hidden;fontSize=24;strokeColor=inherit;fontStyle=1" vertex="1" parent="LA-oecmotC60W59ETHk6-7">
          <mxGeometry width="60" height="40" as="geometry">
            <mxRectangle width="60" height="40" as="alternateBounds" />
          </mxGeometry>
        </mxCell>
        <mxCell id="LA-oecmotC60W59ETHk6-9" value="-17" style="shape=partialRectangle;html=1;whiteSpace=wrap;connectable=0;fillColor=none;top=0;left=0;bottom=0;right=0;overflow=hidden;fontSize=24;strokeColor=inherit;fontStyle=1" vertex="1" parent="LA-oecmotC60W59ETHk6-7">
          <mxGeometry x="60" width="60" height="40" as="geometry">
            <mxRectangle width="60" height="40" as="alternateBounds" />
          </mxGeometry>
        </mxCell>
        <mxCell id="LA-oecmotC60W59ETHk6-10" value="5" style="shape=partialRectangle;html=1;whiteSpace=wrap;connectable=0;fillColor=none;top=0;left=0;bottom=0;right=0;overflow=hidden;fontSize=24;strokeColor=inherit;fontStyle=1" vertex="1" parent="LA-oecmotC60W59ETHk6-7">
          <mxGeometry x="120" width="60" height="40" as="geometry">
            <mxRectangle width="60" height="40" as="alternateBounds" />
          </mxGeometry>
        </mxCell>
        <mxCell id="LA-oecmotC60W59ETHk6-11" value="-5" style="shape=partialRectangle;html=1;whiteSpace=wrap;connectable=0;fillColor=none;top=0;left=0;bottom=0;right=0;overflow=hidden;fontSize=24;strokeColor=inherit;fontStyle=1" vertex="1" parent="LA-oecmotC60W59ETHk6-7">
          <mxGeometry x="180" width="60" height="40" as="geometry">
            <mxRectangle width="60" height="40" as="alternateBounds" />
          </mxGeometry>
        </mxCell>
        <mxCell id="LA-oecmotC60W59ETHk6-12" value="" style="shape=tableRow;horizontal=0;startSize=0;swimlaneHead=0;swimlaneBody=0;top=0;left=0;bottom=0;right=0;collapsible=0;dropTarget=0;fillColor=none;points=[[0,0.5],[1,0.5]];portConstraint=eastwest;fontSize=24;strokeColor=inherit;fontStyle=1" vertex="1" parent="LA-oecmotC60W59ETHk6-1">
          <mxGeometry y="80" width="240" height="40" as="geometry" />
        </mxCell>
        <mxCell id="LA-oecmotC60W59ETHk6-13" value="9" style="shape=partialRectangle;html=1;whiteSpace=wrap;connectable=0;fillColor=none;top=0;left=0;bottom=0;right=0;overflow=hidden;fontSize=24;strokeColor=inherit;fontStyle=1" vertex="1" parent="LA-oecmotC60W59ETHk6-12">
          <mxGeometry width="60" height="40" as="geometry">
            <mxRectangle width="60" height="40" as="alternateBounds" />
          </mxGeometry>
        </mxCell>
        <mxCell id="LA-oecmotC60W59ETHk6-14" value="5" style="shape=partialRectangle;html=1;whiteSpace=wrap;connectable=0;fillColor=none;top=0;left=0;bottom=0;right=0;overflow=hidden;fontSize=24;strokeColor=inherit;fontStyle=1" vertex="1" parent="LA-oecmotC60W59ETHk6-12">
          <mxGeometry x="60" width="60" height="40" as="geometry">
            <mxRectangle width="60" height="40" as="alternateBounds" />
          </mxGeometry>
        </mxCell>
        <mxCell id="LA-oecmotC60W59ETHk6-15" value="7" style="shape=partialRectangle;html=1;whiteSpace=wrap;connectable=0;fillColor=none;top=0;left=0;bottom=0;right=0;overflow=hidden;fontSize=24;strokeColor=inherit;fontStyle=1" vertex="1" parent="LA-oecmotC60W59ETHk6-12">
          <mxGeometry x="120" width="60" height="40" as="geometry">
            <mxRectangle width="60" height="40" as="alternateBounds" />
          </mxGeometry>
        </mxCell>
        <mxCell id="LA-oecmotC60W59ETHk6-16" value="1" style="shape=partialRectangle;html=1;whiteSpace=wrap;connectable=0;fillColor=none;top=0;left=0;bottom=0;right=0;overflow=hidden;fontSize=24;strokeColor=inherit;fontStyle=1" vertex="1" parent="LA-oecmotC60W59ETHk6-12">
          <mxGeometry x="180" width="60" height="40" as="geometry">
            <mxRectangle width="60" height="40" as="alternateBounds" />
          </mxGeometry>
        </mxCell>
        <mxCell id="LA-oecmotC60W59ETHk6-17" style="shape=tableRow;horizontal=0;startSize=0;swimlaneHead=0;swimlaneBody=0;top=0;left=0;bottom=0;right=0;collapsible=0;dropTarget=0;fillColor=none;points=[[0,0.5],[1,0.5]];portConstraint=eastwest;fontSize=24;strokeColor=inherit;fontStyle=1" vertex="1" parent="LA-oecmotC60W59ETHk6-1">
          <mxGeometry y="120" width="240" height="40" as="geometry" />
        </mxCell>
        <mxCell id="LA-oecmotC60W59ETHk6-18" value="-6" style="shape=partialRectangle;html=1;whiteSpace=wrap;connectable=0;fillColor=none;top=0;left=0;bottom=0;right=0;overflow=hidden;fontSize=24;strokeColor=inherit;fontStyle=1" vertex="1" parent="LA-oecmotC60W59ETHk6-17">
          <mxGeometry width="60" height="40" as="geometry">
            <mxRectangle width="60" height="40" as="alternateBounds" />
          </mxGeometry>
        </mxCell>
        <mxCell id="LA-oecmotC60W59ETHk6-19" value="-14" style="shape=partialRectangle;html=1;whiteSpace=wrap;connectable=0;fillColor=none;top=0;left=0;bottom=0;right=0;overflow=hidden;fontSize=24;strokeColor=inherit;fontStyle=1" vertex="1" parent="LA-oecmotC60W59ETHk6-17">
          <mxGeometry x="60" width="60" height="40" as="geometry">
            <mxRectangle width="60" height="40" as="alternateBounds" />
          </mxGeometry>
        </mxCell>
        <mxCell id="LA-oecmotC60W59ETHk6-20" value="4" style="shape=partialRectangle;html=1;whiteSpace=wrap;connectable=0;fillColor=none;top=0;left=0;bottom=0;right=0;overflow=hidden;fontSize=24;strokeColor=inherit;fontStyle=1" vertex="1" parent="LA-oecmotC60W59ETHk6-17">
          <mxGeometry x="120" width="60" height="40" as="geometry">
            <mxRectangle width="60" height="40" as="alternateBounds" />
          </mxGeometry>
        </mxCell>
        <mxCell id="LA-oecmotC60W59ETHk6-21" value="&lt;font style=&quot;&quot;&gt;4&lt;/font&gt;" style="shape=partialRectangle;html=1;whiteSpace=wrap;connectable=0;fillColor=none;top=0;left=0;bottom=0;right=0;overflow=hidden;fontSize=24;strokeColor=inherit;fontStyle=1;fontColor=light-dark(#000000,#FFFFFF);" vertex="1" parent="LA-oecmotC60W59ETHk6-17">
          <mxGeometry x="180" width="60" height="40" as="geometry">
            <mxRectangle width="60" height="40" as="alternateBounds" />
          </mxGeometry>
        </mxCell>
        <mxCell id="LA-oecmotC60W59ETHk6-22" value="ReLu Activation Function" style="text;strokeColor=none;fillColor=none;html=1;fontSize=24;fontStyle=1;verticalAlign=middle;align=center;" vertex="1" parent="1">
          <mxGeometry x="1140" y="90" width="180" height="40" as="geometry" />
        </mxCell>
        <mxCell id="LA-oecmotC60W59ETHk6-23" value="" style="shape=table;html=1;whiteSpace=wrap;startSize=0;container=1;collapsible=0;childLayout=tableLayout;columnLines=0;rowLines=0;fontSize=24;strokeColor=default;fillColor=light-dark(#FFFFFF,#071E22);fontStyle=1" vertex="1" parent="1">
          <mxGeometry x="1330" y="180" width="240" height="160" as="geometry" />
        </mxCell>
        <mxCell id="LA-oecmotC60W59ETHk6-24" value="" style="shape=tableRow;horizontal=0;startSize=0;swimlaneHead=0;swimlaneBody=0;top=0;left=0;bottom=0;right=0;collapsible=0;dropTarget=0;fillColor=none;points=[[0,0.5],[1,0.5]];portConstraint=eastwest;fontSize=24;strokeColor=inherit;fontStyle=1" vertex="1" parent="LA-oecmotC60W59ETHk6-23">
          <mxGeometry width="240" height="40" as="geometry" />
        </mxCell>
        <mxCell id="LA-oecmotC60W59ETHk6-25" value="&lt;font style=&quot;&quot;&gt;0&lt;/font&gt;" style="shape=partialRectangle;html=1;whiteSpace=wrap;connectable=0;fillColor=none;top=0;left=0;bottom=0;right=0;overflow=hidden;fontSize=24;strokeColor=inherit;fontStyle=1;fontColor=light-dark(#000000,#FFFFFF);" vertex="1" parent="LA-oecmotC60W59ETHk6-24">
          <mxGeometry width="60" height="40" as="geometry">
            <mxRectangle width="60" height="40" as="alternateBounds" />
          </mxGeometry>
        </mxCell>
        <mxCell id="LA-oecmotC60W59ETHk6-26" value="0" style="shape=partialRectangle;html=1;whiteSpace=wrap;connectable=0;fillColor=none;top=0;left=0;bottom=0;right=0;overflow=hidden;fontSize=24;strokeColor=inherit;fontStyle=1" vertex="1" parent="LA-oecmotC60W59ETHk6-24">
          <mxGeometry x="60" width="60" height="40" as="geometry">
            <mxRectangle width="60" height="40" as="alternateBounds" />
          </mxGeometry>
        </mxCell>
        <mxCell id="LA-oecmotC60W59ETHk6-27" value="6" style="shape=partialRectangle;html=1;whiteSpace=wrap;connectable=0;fillColor=none;top=0;left=0;bottom=0;right=0;overflow=hidden;fontSize=24;strokeColor=inherit;fontStyle=1" vertex="1" parent="LA-oecmotC60W59ETHk6-24">
          <mxGeometry x="120" width="60" height="40" as="geometry">
            <mxRectangle width="60" height="40" as="alternateBounds" />
          </mxGeometry>
        </mxCell>
        <mxCell id="LA-oecmotC60W59ETHk6-28" value="0" style="shape=partialRectangle;html=1;whiteSpace=wrap;connectable=0;fillColor=none;top=0;left=0;bottom=0;right=0;overflow=hidden;fontSize=24;strokeColor=inherit;fontStyle=1" vertex="1" parent="LA-oecmotC60W59ETHk6-24">
          <mxGeometry x="180" width="60" height="40" as="geometry">
            <mxRectangle width="60" height="40" as="alternateBounds" />
          </mxGeometry>
        </mxCell>
        <mxCell id="LA-oecmotC60W59ETHk6-29" value="" style="shape=tableRow;horizontal=0;startSize=0;swimlaneHead=0;swimlaneBody=0;top=0;left=0;bottom=0;right=0;collapsible=0;dropTarget=0;fillColor=none;points=[[0,0.5],[1,0.5]];portConstraint=eastwest;fontSize=24;strokeColor=inherit;fontStyle=1" vertex="1" parent="LA-oecmotC60W59ETHk6-23">
          <mxGeometry y="40" width="240" height="40" as="geometry" />
        </mxCell>
        <mxCell id="LA-oecmotC60W59ETHk6-30" value="0" style="shape=partialRectangle;html=1;whiteSpace=wrap;connectable=0;fillColor=none;top=0;left=0;bottom=0;right=0;overflow=hidden;fontSize=24;strokeColor=inherit;fontStyle=1" vertex="1" parent="LA-oecmotC60W59ETHk6-29">
          <mxGeometry width="60" height="40" as="geometry">
            <mxRectangle width="60" height="40" as="alternateBounds" />
          </mxGeometry>
        </mxCell>
        <mxCell id="LA-oecmotC60W59ETHk6-31" value="0" style="shape=partialRectangle;html=1;whiteSpace=wrap;connectable=0;fillColor=none;top=0;left=0;bottom=0;right=0;overflow=hidden;fontSize=24;strokeColor=inherit;fontStyle=1" vertex="1" parent="LA-oecmotC60W59ETHk6-29">
          <mxGeometry x="60" width="60" height="40" as="geometry">
            <mxRectangle width="60" height="40" as="alternateBounds" />
          </mxGeometry>
        </mxCell>
        <mxCell id="LA-oecmotC60W59ETHk6-32" value="5" style="shape=partialRectangle;html=1;whiteSpace=wrap;connectable=0;fillColor=none;top=0;left=0;bottom=0;right=0;overflow=hidden;fontSize=24;strokeColor=inherit;fontStyle=1" vertex="1" parent="LA-oecmotC60W59ETHk6-29">
          <mxGeometry x="120" width="60" height="40" as="geometry">
            <mxRectangle width="60" height="40" as="alternateBounds" />
          </mxGeometry>
        </mxCell>
        <mxCell id="LA-oecmotC60W59ETHk6-33" value="0" style="shape=partialRectangle;html=1;whiteSpace=wrap;connectable=0;fillColor=none;top=0;left=0;bottom=0;right=0;overflow=hidden;fontSize=24;strokeColor=inherit;fontStyle=1" vertex="1" parent="LA-oecmotC60W59ETHk6-29">
          <mxGeometry x="180" width="60" height="40" as="geometry">
            <mxRectangle width="60" height="40" as="alternateBounds" />
          </mxGeometry>
        </mxCell>
        <mxCell id="LA-oecmotC60W59ETHk6-34" value="" style="shape=tableRow;horizontal=0;startSize=0;swimlaneHead=0;swimlaneBody=0;top=0;left=0;bottom=0;right=0;collapsible=0;dropTarget=0;fillColor=none;points=[[0,0.5],[1,0.5]];portConstraint=eastwest;fontSize=24;strokeColor=inherit;fontStyle=1" vertex="1" parent="LA-oecmotC60W59ETHk6-23">
          <mxGeometry y="80" width="240" height="40" as="geometry" />
        </mxCell>
        <mxCell id="LA-oecmotC60W59ETHk6-35" value="9" style="shape=partialRectangle;html=1;whiteSpace=wrap;connectable=0;fillColor=none;top=0;left=0;bottom=0;right=0;overflow=hidden;fontSize=24;strokeColor=inherit;fontStyle=1" vertex="1" parent="LA-oecmotC60W59ETHk6-34">
          <mxGeometry width="60" height="40" as="geometry">
            <mxRectangle width="60" height="40" as="alternateBounds" />
          </mxGeometry>
        </mxCell>
        <mxCell id="LA-oecmotC60W59ETHk6-36" value="5" style="shape=partialRectangle;html=1;whiteSpace=wrap;connectable=0;fillColor=none;top=0;left=0;bottom=0;right=0;overflow=hidden;fontSize=24;strokeColor=inherit;fontStyle=1" vertex="1" parent="LA-oecmotC60W59ETHk6-34">
          <mxGeometry x="60" width="60" height="40" as="geometry">
            <mxRectangle width="60" height="40" as="alternateBounds" />
          </mxGeometry>
        </mxCell>
        <mxCell id="LA-oecmotC60W59ETHk6-37" value="7" style="shape=partialRectangle;html=1;whiteSpace=wrap;connectable=0;fillColor=none;top=0;left=0;bottom=0;right=0;overflow=hidden;fontSize=24;strokeColor=inherit;fontStyle=1" vertex="1" parent="LA-oecmotC60W59ETHk6-34">
          <mxGeometry x="120" width="60" height="40" as="geometry">
            <mxRectangle width="60" height="40" as="alternateBounds" />
          </mxGeometry>
        </mxCell>
        <mxCell id="LA-oecmotC60W59ETHk6-38" value="1" style="shape=partialRectangle;html=1;whiteSpace=wrap;connectable=0;fillColor=none;top=0;left=0;bottom=0;right=0;overflow=hidden;fontSize=24;strokeColor=inherit;fontStyle=1" vertex="1" parent="LA-oecmotC60W59ETHk6-34">
          <mxGeometry x="180" width="60" height="40" as="geometry">
            <mxRectangle width="60" height="40" as="alternateBounds" />
          </mxGeometry>
        </mxCell>
        <mxCell id="LA-oecmotC60W59ETHk6-39" style="shape=tableRow;horizontal=0;startSize=0;swimlaneHead=0;swimlaneBody=0;top=0;left=0;bottom=0;right=0;collapsible=0;dropTarget=0;fillColor=none;points=[[0,0.5],[1,0.5]];portConstraint=eastwest;fontSize=24;strokeColor=inherit;fontStyle=1" vertex="1" parent="LA-oecmotC60W59ETHk6-23">
          <mxGeometry y="120" width="240" height="40" as="geometry" />
        </mxCell>
        <mxCell id="LA-oecmotC60W59ETHk6-40" value="0" style="shape=partialRectangle;html=1;whiteSpace=wrap;connectable=0;fillColor=none;top=0;left=0;bottom=0;right=0;overflow=hidden;fontSize=24;strokeColor=inherit;fontStyle=1" vertex="1" parent="LA-oecmotC60W59ETHk6-39">
          <mxGeometry width="60" height="40" as="geometry">
            <mxRectangle width="60" height="40" as="alternateBounds" />
          </mxGeometry>
        </mxCell>
        <mxCell id="LA-oecmotC60W59ETHk6-41" value="0" style="shape=partialRectangle;html=1;whiteSpace=wrap;connectable=0;fillColor=none;top=0;left=0;bottom=0;right=0;overflow=hidden;fontSize=24;strokeColor=inherit;fontStyle=1" vertex="1" parent="LA-oecmotC60W59ETHk6-39">
          <mxGeometry x="60" width="60" height="40" as="geometry">
            <mxRectangle width="60" height="40" as="alternateBounds" />
          </mxGeometry>
        </mxCell>
        <mxCell id="LA-oecmotC60W59ETHk6-42" value="4" style="shape=partialRectangle;html=1;whiteSpace=wrap;connectable=0;fillColor=none;top=0;left=0;bottom=0;right=0;overflow=hidden;fontSize=24;strokeColor=inherit;fontStyle=1" vertex="1" parent="LA-oecmotC60W59ETHk6-39">
          <mxGeometry x="120" width="60" height="40" as="geometry">
            <mxRectangle width="60" height="40" as="alternateBounds" />
          </mxGeometry>
        </mxCell>
        <mxCell id="LA-oecmotC60W59ETHk6-43" value="&lt;font style=&quot;&quot;&gt;4&lt;/font&gt;" style="shape=partialRectangle;html=1;whiteSpace=wrap;connectable=0;fillColor=none;top=0;left=0;bottom=0;right=0;overflow=hidden;fontSize=24;strokeColor=inherit;fontStyle=1;fontColor=light-dark(#000000,#FFFFFF);" vertex="1" parent="LA-oecmotC60W59ETHk6-39">
          <mxGeometry x="180" width="60" height="40" as="geometry">
            <mxRectangle width="60" height="40" as="alternateBounds" />
          </mxGeometry>
        </mxCell>
        <mxCell id="LA-oecmotC60W59ETHk6-44" value="" style="endArrow=classic;html=1;rounded=0;exitX=0.992;exitY=1.008;exitDx=0;exitDy=0;exitPerimeter=0;entryX=0;entryY=0.008;entryDx=0;entryDy=0;entryPerimeter=0;fontSize=17;strokeWidth=5;" edge="1" parent="1" source="LA-oecmotC60W59ETHk6-7" target="LA-oecmotC60W59ETHk6-34">
          <mxGeometry relative="1" as="geometry">
            <mxPoint x="1190" y="270" as="sourcePoint" />
            <mxPoint x="1290" y="270" as="targetPoint" />
          </mxGeometry>
        </mxCell>
        <mxCell id="LA-oecmotC60W59ETHk6-45" value="&lt;font style=&quot;font-size: 22px;&quot;&gt;&lt;b style=&quot;&quot;&gt;ReLu&lt;/b&gt;&lt;/font&gt;" style="edgeLabel;resizable=0;html=1;;align=center;verticalAlign=middle;" connectable="0" vertex="1" parent="LA-oecmotC60W59ETHk6-44">
          <mxGeometry relative="1" as="geometry" />
        </mxCell>
        <mxCell id="LA-oecmotC60W59ETHk6-47" value="Feature Map" style="text;strokeColor=none;fillColor=none;html=1;fontSize=24;fontStyle=1;verticalAlign=middle;align=center;" vertex="1" parent="1">
          <mxGeometry x="940" y="140" width="180" height="40" as="geometry" />
        </mxCell>
      </root>
    </mxGraphModel>
  </diagram>
</mxfile>
